<svg width="171" height="47" viewBox="0 0 171 47" fill="none" xmlns="http://www.w3.org/2000/svg">
<path d="M33.4841 17.8203C33.4841 21.8516 32.7654 25.2344 31.3279 27.9688C29.906 30.6875 27.8123 32.6797 25.0466 33.9453L33.2966 43.1562H23.9919L17.7107 35.4688H17.1716C11.9216 35.4688 7.89038 33.9453 5.07788 30.8984C2.26538 27.8516 0.859131 23.4766 0.859131 17.7734C0.859131 12.0703 2.26538 7.71875 5.07788 4.71875C7.90601 1.70312 11.9529 0.195312 17.2185 0.195312C22.4841 0.195312 26.5076 1.71094 29.2888 4.74219C32.0857 7.77344 33.4841 12.1328 33.4841 17.8203ZM8.47632 17.8203C8.47632 21.6484 9.20288 24.5312 10.656 26.4688C12.1091 28.4062 14.281 29.375 17.1716 29.375C22.9685 29.375 25.8669 25.5234 25.8669 17.8203C25.8669 10.1016 22.9841 6.24219 17.2185 6.24219C14.3279 6.24219 12.1482 7.21875 10.6794 9.17188C9.21069 11.1094 8.47632 13.9922 8.47632 17.8203ZM74.4407 35H66.1673L61.5266 17C61.3548 16.3594 61.0579 15.0391 60.636 13.0391C60.2298 11.0234 59.9954 9.67188 59.9329 8.98438C59.8391 9.82812 59.6048 11.1875 59.2298 13.0625C58.8548 14.9219 58.5657 16.25 58.3626 17.0469L53.7454 35H45.4954L36.7532 0.734375H43.9016L48.2844 19.4375C49.0501 22.8906 49.6048 25.8828 49.9485 28.4141C50.0423 27.5234 50.2532 26.1484 50.5813 24.2891C50.9251 22.4141 51.2454 20.9609 51.5423 19.9297L56.5344 0.734375H63.4016L68.3938 19.9297C68.6126 20.7891 68.886 22.1016 69.2141 23.8672C69.5423 25.6328 69.7923 27.1484 69.9641 28.4141C70.1204 27.1953 70.3704 25.6797 70.7141 23.8672C71.0579 22.0391 71.3704 20.5625 71.6516 19.4375L76.011 0.734375H83.1594L74.4407 35ZM107.686 35H87.9519V0.734375H107.686V6.6875H95.2176V14.2109H106.819V20.1641H95.2176V29H107.686V35ZM122.604 15.9453H124.948C127.244 15.9453 128.94 15.5625 130.034 14.7969C131.127 14.0312 131.674 12.8281 131.674 11.1875C131.674 9.5625 131.112 8.40625 129.987 7.71875C128.877 7.03125 127.151 6.6875 124.807 6.6875H122.604V15.9453ZM122.604 21.8516V35H115.338V0.734375H125.323C129.979 0.734375 133.424 1.58594 135.659 3.28906C137.893 4.97656 139.01 7.54688 139.01 11C139.01 13.0156 138.455 14.8125 137.346 16.3906C136.237 17.9531 134.666 19.1797 132.635 20.0703C137.791 27.7734 141.151 32.75 142.713 35H134.651L126.471 21.8516H122.604ZM143.193 8.79688H151.021L155.967 23.5391C156.389 24.8203 156.678 26.3359 156.834 28.0859H156.974C157.146 26.4766 157.482 24.9609 157.982 23.5391L162.834 8.79688H170.498L159.412 38.3516C158.396 41.0859 156.943 43.1328 155.053 44.4922C153.178 45.8516 150.982 46.5312 148.467 46.5312C147.232 46.5312 146.021 46.3984 144.834 46.1328V40.4609C145.693 40.6641 146.631 40.7656 147.646 40.7656C148.912 40.7656 150.014 40.375 150.951 39.5938C151.904 38.8281 152.646 37.6641 153.178 36.1016L153.599 34.8125L143.193 8.79688Z" fill="white"/>
</svg>
